# xmcd CD database file
#
# Track frame offsets:
#	150
#	13573
#	25687
#	39400
#	52490
#	66692
#	81326
#	93212
#	104708
#	117239
#	132780
#	146656
#	160944
#	175289
#	189277
#	203540
#	219288
#	232309
#	247313
#	262212
#
# Disc length: 3688 seconds
#
# Revision: 7
# Processed by: cddbd v1.5.2PL0 Copyright (c) Steve Scherf et al.
# Submitted via: CDex 1.51
#
DISCID=2f0e6614
DTITLE=Benny Goodman - Vol.07 - I Had To Do It
DYEAR=1900
DGENRE=Jazz
TTITLE0=Minnie The Moocher's Wedding Day
TTITLE1=Let That Be A Lesson To You
TTITLE2=Can't Teach My Old Heart New Tricks
TTITLE3=I've Hitched My Wagon To A Star
TTITLE4=Pop-Corn Man
TTITLE5=You Took The Words Right Out Of My Heart
TTITLE6=Mama, That Moon Is Here Again
TTITLE7=Loch Lomond
TTITLE8=Camel Hop
TTITLE9=True Confession
TTITLE10=Life Goes To A Party
TTITLE11=It's Wonderful
TTITLE12=Thanks For The Memory
TTITLE13=Life Goes To A Party
TTITLE14=If Dreams Come True
TTITLE15=I'm Like A Fish Out Of Water
TTITLE16=Sweet Stranger
TTITLE17=Don't Be That Way
TTITLE18=Please Be Kind
TTITLE19=One O'Clock Jump
EXTD=
EXTT0=
EXTT1=
EXTT2=
EXTT3=
EXTT4=
EXTT5=
EXTT6=
EXTT7=
EXTT8=
EXTT9=
EXTT10=
EXTT11=
EXTT12=
EXTT13=
EXTT14=
EXTT15=
EXTT16=
EXTT17=
EXTT18=
EXTT19=
PLAYORDER=
